# xmcd
#
# Track frame offsets:
#	150
#	32818
#	49949
#	75581
#	92891
#	109471
#	131511
#	155620
#	176542
#	198103
#	217871
#	239573
#	256366
#	290526
#	316290
#	333573
#
# Disc length: 4653 seconds
#
# Revision: 8
# Processed by: cddbd v1.5.2PL0 Copyright (c) Steve Scherf et al.
# Submitted via: audiograbber 1.83.01
#
DISCID=e7122b10
DTITLE=Billy Joel - 12 Gardens Live CD2
DYEAR=2006
DGENRE=Rock
TTITLE0=Goodnight Saigon
TTITLE1=Movin' Out (Anthony's Song)
TTITLE2=An Innocent Man
TTITLE3=The Downeaster "Alexa"
TTITLE4=She's Always A Woman
TTITLE5=Keeping The Faith
TTITLE6=The River Of Dreams
TTITLE7=A Matter Of Trust
TTITLE8=We Didn't Start The Fire
TTITLE9=Big Shot
TTITLE10=You May Be Right
TTITLE11=Only The Good Die Young
TTITLE12=Scenes From An Italian Restaurant
TTITLE13=Piano Man
TTITLE14=And So It Goes
TTITLE15=It's Still Rock And Roll To Me
EXTD=YEAR: 2006
EXTT0=
EXTT1=
EXTT2=
EXTT3=
EXTT4=
EXTT5=
EXTT6=
EXTT7=
EXTT8=
EXTT9=
EXTT10=
EXTT11=
EXTT12=
EXTT13=
EXTT14=
EXTT15=
PLAYORDER=
